<svg width="42" height="42" viewBox="0 0 42 42" fill="none" xmlns="http://www.w3.org/2000/svg">
<path d="M42 21C42 32.598 32.598 42 21 42C9.40202 42 0 32.598 0 21C0 9.40202 9.40202 0 21 0C32.598 0 42 9.40202 42 21ZM3.1108 21C3.1108 30.8799 11.1201 38.8892 21 38.8892C30.8799 38.8892 38.8892 30.8799 38.8892 21C38.8892 11.1201 30.8799 3.1108 21 3.1108C11.1201 3.1108 3.1108 11.1201 3.1108 21Z" fill="white"/>
<path d="M15.8926 23.356L18.3096 15.3359H20.7559L17.0425 26H14.75L11.0513 15.3359H13.4902L15.8926 23.356ZM25.1064 21.7227L23.9639 22.9531V26H21.7666V15.3359H23.9639V20.1699L24.9307 18.8442L27.6479 15.3359H30.3506L26.564 20.0747L30.4604 26H27.8457L25.1064 21.7227Z" fill="white"/>
</svg>
