<svg width="42" height="42" viewBox="0 0 42 42" fill="none" xmlns="http://www.w3.org/2000/svg">
<path d="M42 21C42 32.598 32.598 42 21 42C9.40202 42 0 32.598 0 21C0 9.40202 9.40202 0 21 0C32.598 0 42 9.40202 42 21ZM3.1108 21C3.1108 30.8799 11.1201 38.8892 21 38.8892C30.8799 38.8892 38.8892 30.8799 38.8892 21C38.8892 11.1201 30.8799 3.1108 21 3.1108C11.1201 3.1108 3.1108 11.1201 3.1108 21Z" fill="white"/>
<path d="M17.2886 26H15.0913V15.3359H17.2886V26ZM27.7695 24.6523C27.374 25.126 26.8149 25.4946 26.0923 25.7583C25.3696 26.0171 24.5688 26.1465 23.6899 26.1465C22.7671 26.1465 21.9565 25.9463 21.2583 25.5459C20.5649 25.1406 20.0278 24.5547 19.647 23.7881C19.271 23.0215 19.0781 22.1206 19.0684 21.0854V20.3604C19.0684 19.2959 19.2466 18.3755 19.603 17.5991C19.9644 16.8179 20.4819 16.2222 21.1558 15.812C21.8345 15.397 22.6279 15.1895 23.5361 15.1895C24.8008 15.1895 25.7896 15.4922 26.5024 16.0977C27.2153 16.6982 27.6377 17.5747 27.7695 18.7271H25.6309C25.5332 18.1167 25.3159 17.6699 24.979 17.3867C24.647 17.1035 24.188 16.9619 23.6021 16.9619C22.855 16.9619 22.2861 17.2427 21.8955 17.8042C21.5049 18.3657 21.3071 19.2007 21.3022 20.3091V20.9902C21.3022 22.1084 21.5146 22.9531 21.9395 23.5244C22.3643 24.0957 22.9868 24.3813 23.8071 24.3813C24.6323 24.3813 25.2207 24.2056 25.5723 23.854V22.0156H23.5728V20.397H27.7695V24.6523Z" fill="white"/>
</svg>
