<svg width="42" height="42" viewBox="0 0 42 42" fill="none" xmlns="http://www.w3.org/2000/svg">
<path d="M42 21C42 32.598 32.598 42 21 42C9.40202 42 0 32.598 0 21C0 9.40202 9.40202 0 21 0C32.598 0 42 9.40202 42 21ZM3.1108 21C3.1108 30.8799 11.1201 38.8892 21 38.8892C30.8799 38.8892 38.8892 30.8799 38.8892 21C38.8892 11.1201 30.8799 3.1108 21 3.1108C11.1201 3.1108 3.1108 11.1201 3.1108 21Z" fill="white"/>
<path d="M19.3682 21.6421H15.1494V26H12.9521V15.3359H19.8955V17.1157H15.1494V19.8696H19.3682V21.6421ZM21.1699 26V15.3359H24.9053C26.1992 15.3359 27.1807 15.585 27.8496 16.083C28.5186 16.5762 28.853 17.3013 28.853 18.2583C28.853 18.7808 28.7188 19.2422 28.4502 19.6426C28.1816 20.0381 27.8081 20.3286 27.3296 20.5142C27.8765 20.6509 28.3062 20.9268 28.6187 21.3418C28.936 21.7568 29.0947 22.2646 29.0947 22.8652C29.0947 23.8906 28.7676 24.667 28.1133 25.1943C27.459 25.7217 26.5264 25.9902 25.3154 26H21.1699ZM23.3672 21.3564V24.2349H25.2495C25.7671 24.2349 26.1699 24.1128 26.458 23.8687C26.751 23.6196 26.8975 23.2778 26.8975 22.8433C26.8975 21.8667 26.3921 21.3711 25.3813 21.3564H23.3672ZM23.3672 19.8037H24.9932C26.1016 19.7842 26.6558 19.3423 26.6558 18.478C26.6558 17.9946 26.5142 17.6479 26.231 17.438C25.9526 17.2231 25.5107 17.1157 24.9053 17.1157H23.3672V19.8037Z" fill="white"/>
</svg>
