<svg width="27" height="26" viewBox="0 0 27 26" fill="none" xmlns="http://www.w3.org/2000/svg">
<path d="M11.964 0.0304489C9.75411 0.231733 7.79309 0.940878 5.995 2.19195C3.22232 4.12119 1.28204 7.20551 0.680698 10.6397C0.523698 11.5254 0.5 11.8413 0.5 12.9994C0.5 14.1576 0.523698 14.4642 0.680698 15.3684C1.31758 19.0256 3.48596 22.2741 6.55783 24.1754C8.33815 25.281 10.3703 25.9127 12.3491 25.9808L12.9119 25.9994V19.7998V13.6033H9.61785H6.32085V14.5633V15.5232H8.69066H11.0605V19.614V23.7047L10.9361 23.6831C10.471 23.6025 9.52009 23.3022 8.90986 23.0389C6.45415 21.983 4.41019 19.871 3.35858 17.3039C2.855 16.0807 2.58247 14.8234 2.51138 13.4237L2.49064 13.0149H4.45166H6.40971V12.7703C6.40971 12.2284 6.54005 11.4882 6.75038 10.8286C7.45539 8.60831 9.22979 6.92061 11.4308 6.37869C11.8336 6.27959 12.3787 6.20218 12.6927 6.20218H12.9267V3.10547V0.0087719L12.5061 0.0149651C12.272 0.0180607 12.0291 0.0242558 11.964 0.0304489Z" fill="#EFE5B1"/>
<path d="M14.251 6.51555C14.2539 10.0984 14.2598 13.1673 14.2598 13.3314V13.6349H17.4028H20.5487L20.528 13.8269C20.4628 14.4369 20.2288 15.2916 19.9681 15.8707C19.1239 17.7566 17.4946 19.1408 15.5484 19.6208C15.1841 19.7106 14.6064 19.7973 14.3606 19.7973H14.1976L14.2154 20.2401C14.2243 20.4817 14.251 21.5996 14.2747 22.7237C14.2983 23.8478 14.325 25.0462 14.3369 25.3838L14.3546 26L14.7605 25.9814C16.5645 25.8947 18.5048 25.3063 20.1399 24.3526C23.3096 22.5007 25.549 19.274 26.2689 15.5239C26.4407 14.6413 26.4703 14.2666 26.4851 12.9195L26.4999 11.6623L21.2834 11.6778L16.0668 11.6932V6.99554C16.0668 2.54558 16.0698 2.30094 16.1201 2.30094C16.2475 2.30094 17.0918 2.5301 17.5272 2.68493C18.6173 3.06583 19.586 3.59227 20.4747 4.28902C21.544 5.12823 22.4949 6.22756 23.1585 7.39192C23.2533 7.55604 23.3362 7.6892 23.3451 7.6892C23.3718 7.6892 25.0247 6.72303 25.0662 6.68277C25.1373 6.61465 24.527 5.6237 23.9198 4.82475C23.5702 4.36334 22.5275 3.27021 22.1039 2.91718C19.9385 1.118 17.3821 0.105379 14.793 0.018671L14.245 9.15527e-05L14.251 6.51555Z" fill="#EFE5B1"/>
</svg>
