<svg width="145" height="145" viewBox="0 0 145 145" fill="none" xmlns="http://www.w3.org/2000/svg">
<path d="M145 72.5C145 83.9046 142.366 94.6947 137.671 104.295C125.892 128.399 101.135 110.846 72.5 110.846C43.8653 110.846 19.1077 128.399 7.3293 104.295C2.63379 94.6947 0 83.9046 0 72.5C0 61.0954 2.63379 50.3054 7.3293 40.7048C14.8342 25.3467 27.6095 13.033 43.2989 6.12285C52.234 2.18633 62.1121 0 72.5 0C82.8879 0 92.766 2.18633 101.701 6.12285C117.391 13.033 130.166 25.3467 137.671 40.7048C142.366 50.3054 145 61.0954 145 72.5Z" fill="#DC4355"/>
<path d="M137.67 21.2514V104.295C136.028 107.657 134.13 110.874 132.006 113.918C118.908 132.706 97.1382 145 72.4995 145C58.2762 145 45.0087 140.903 33.814 133.825C32.2289 132.822 35.0776 130.548 33.5789 129.43C31.9394 128.206 25.9607 128.127 24.4323 126.772C20.1321 122.96 16.2882 118.645 12.9932 113.918C10.8691 110.874 8.97168 107.657 7.3291 104.295V21.2514C7.3291 12.8969 14.1033 6.12268 22.4606 6.12268H122.539C130.896 6.12268 137.67 12.8969 137.67 21.2514Z" fill="#E9EEFF"/>
<path d="M132.007 21.2521V30.3088H12.9941V21.2521C12.9941 16.0327 17.2422 11.7875 22.4616 11.7875H122.54C127.759 11.7875 132.007 16.0327 132.007 21.2521Z" fill="#D4DAF8"/>
<path d="M132.007 35.9718V113.918C118.909 132.706 97.1394 145 72.5008 145C58.2783 145 45.0102 140.902 33.8152 133.824C32.521 133.006 34.8172 130.326 33.5799 129.43C31.6439 128.028 26.2175 128.355 24.4327 126.773C20.1337 122.961 16.2878 118.645 12.9941 113.918V35.9718H132.007Z" fill="#D4DAF8"/>
<path d="M113.468 51.9978H84.732C82.7847 51.9978 81.2064 50.4191 81.2064 48.472C81.2064 46.5246 82.785 44.9463 84.732 44.9463H113.468C115.415 44.9463 116.993 46.5249 116.993 48.472C116.993 50.4191 115.415 51.9978 113.468 51.9978Z" fill="#50405A"/>
<path d="M113.467 65.1915H84.7316C82.7843 65.1915 81.2061 63.6129 81.2061 61.6659C81.2061 59.7186 82.7846 58.1403 84.7316 58.1403H113.467C115.415 58.1403 116.993 59.7188 116.993 61.6659C116.993 63.6129 115.414 65.1915 113.467 65.1915Z" fill="#50405A"/>
<path d="M98.1206 78.8256L84.7317 78.3866C82.7843 78.3866 81.2061 76.808 81.2061 74.861C81.2061 72.9137 82.7846 71.3351 84.7317 71.3351L98.1206 71.7741C100.068 71.7741 101.646 73.3526 101.646 75.2997C101.646 77.247 100.068 78.8256 98.1206 78.8256Z" fill="#50405A"/>
<path d="M113.468 91.582H84.732C82.7847 91.582 81.2064 90.0034 81.2064 88.0564C81.2064 86.1091 82.785 84.5308 84.732 84.5308H113.468C115.415 84.5308 116.993 86.1094 116.993 88.0564C116.993 90.0034 115.415 91.582 113.468 91.582Z" fill="#50405A"/>
<path d="M98.1206 105.214L84.7317 104.775C82.7843 104.775 81.2061 103.197 81.2061 101.25C81.2061 99.3025 82.7846 97.7242 84.7317 97.7242L98.1206 98.1632C100.068 98.1632 101.646 99.7418 101.646 101.689C101.646 103.636 100.068 105.214 98.1206 105.214Z" fill="#50405A"/>
<path d="M26.5231 26.6519C29.2147 26.6519 31.3967 24.4698 31.3967 21.7782C31.3967 19.0866 29.2147 16.9045 26.5231 16.9045C23.8314 16.9045 21.6494 19.0866 21.6494 21.7782C21.6494 24.4698 23.8314 26.6519 26.5231 26.6519Z" fill="#6978D8"/>
<path d="M39.8233 26.652C42.515 26.652 44.697 24.4699 44.697 21.7782C44.697 19.0865 42.515 16.9044 39.8233 16.9044C37.1317 16.9044 34.9497 19.0865 34.9497 21.7782C34.9497 24.4699 37.1317 26.652 39.8233 26.652Z" fill="#545FC0"/>
<path d="M53.1238 26.652C55.8154 26.652 57.9974 24.4699 57.9974 21.7782C57.9974 19.0865 55.8154 16.9044 53.1238 16.9044C50.4321 16.9044 48.2501 19.0865 48.2501 21.7782C48.2501 24.4699 50.4321 26.652 53.1238 26.652Z" fill="#6978D8"/>
<path d="M63.1091 43.0387H24.2627C20.3225 43.0387 17.1279 46.2329 17.1279 50.1734V97.3075C17.1279 101.248 20.3222 104.442 24.2627 104.442H63.1091C67.0493 104.442 70.2438 101.248 70.2438 97.3075V50.1734C70.2435 46.2329 67.0493 43.0387 63.1091 43.0387Z" fill="#6978D8"/>
<path d="M32.2816 50.8241C30.1091 50.8241 28.3479 52.5853 28.3479 54.7578V74.0543H36.2153V54.7578C36.2153 52.5853 34.4543 50.8241 32.2816 50.8241Z" fill="#362A40"/>
<path d="M51.2237 50.8241H41.5124C37.7792 50.8241 34.7529 53.8504 34.7529 57.5836V74.0543H57.9832V57.5836C57.9832 53.8504 54.9569 50.8241 51.2237 50.8241Z" fill="#362A40"/>
<path d="M58.2326 80.6889H28.349C25.8381 80.6889 23.8027 78.6535 23.8027 76.1426C23.8027 73.6317 25.8381 71.5963 28.349 71.5963H58.2326C60.7435 71.5963 62.7788 73.6317 62.7788 76.1426C62.7785 78.6535 60.7432 80.6889 58.2326 80.6889Z" fill="#D99A80"/>
<path d="M56.5732 69.9531V81.9977C56.5732 85.6651 55.0864 88.9871 52.682 91.3886C50.2805 93.793 46.9585 95.2798 43.291 95.2798C35.9561 95.2798 30.0088 89.3326 30.0088 81.9977V69.9531C30.0088 69.4433 30.0371 68.942 30.0938 68.4493C30.8414 69.7718 32.2631 70.6639 33.8915 70.6639C36.2647 70.6639 38.1934 68.7636 38.2472 66.4017C39.802 68.9562 42.6113 70.6639 45.8172 70.6639C50.3116 70.6639 54.0244 67.3136 54.5937 62.975C55.8483 65.0027 56.5732 67.3929 56.5732 69.9531Z" fill="#ECB99D"/>
<path d="M46.5818 94.8702C45.5283 95.1393 44.4267 95.2809 43.291 95.2809C35.9561 95.2809 30.0088 89.3336 30.0088 81.9986V69.954C30.0088 69.4442 30.0371 68.943 30.0938 68.4502C30.8414 69.7728 32.2631 70.6648 33.8915 70.6648C34.9139 70.6648 35.8541 70.3108 36.5961 69.7218C36.5933 69.7982 36.5933 69.8747 36.5933 69.954V81.9986C36.5933 88.198 40.8385 93.4061 46.5818 94.8702Z" fill="#D99A80"/>
<path d="M34.0822 58.1069H30.0098V78.9513C32.259 78.9513 34.0822 77.1281 34.0822 74.8789V58.1069Z" fill="#362A40"/>
<path d="M56.5736 58.1064H52.5011V74.8784C52.5011 77.1276 54.3244 78.9509 56.5736 78.9509V58.1064Z" fill="#362A40"/>
<path d="M120.212 120.631H22.9162C20.9689 120.631 19.3906 119.053 19.3906 117.106C19.3906 115.158 20.9692 113.58 22.9162 113.58H120.212C122.16 113.58 123.738 115.159 123.738 117.106C123.738 119.053 122.16 120.631 120.212 120.631Z" fill="#50405A"/>
<path d="M89.2153 130.3C89.2153 131.274 88.8217 132.155 88.1845 132.795C87.5445 133.432 86.6665 133.826 85.6923 133.826H33.8151C30.496 131.727 27.3581 129.368 24.4326 126.774H85.6923C87.6379 126.774 89.2153 128.354 89.2153 130.3Z" fill="#50405A"/>
</svg>
