<svg width="65" height="50" viewBox="0 0 65 50" fill="none" xmlns="http://www.w3.org/2000/svg">
<g filter="url(#filter0_d)">
<rect x="3" y="3" width="59" height="44" rx="22" fill="#242423"/>
<path d="M39 23C39 27.4183 35.4183 31 31 31C26.5817 31 23 27.4183 23 23C23 18.5817 26.5817 15 31 15C35.4183 15 39 18.5817 39 23ZM24.752 23C24.752 26.4507 27.5493 29.248 31 29.248C34.4507 29.248 37.248 26.4507 37.248 23C37.248 19.5493 34.4507 16.752 31 16.752C27.5493 16.752 24.752 19.5493 24.752 23Z" fill="white"/>
<line x1="36.7071" y1="28.2929" x2="42.7071" y2="34.2929" stroke="white" stroke-width="2"/>
</g>
<defs>
<filter id="filter0_d" x="0" y="0" width="65" height="50" filterUnits="userSpaceOnUse" color-interpolation-filters="sRGB">
<feFlood flood-opacity="0" result="BackgroundImageFix"/>
<feColorMatrix in="SourceAlpha" type="matrix" values="0 0 0 0 0 0 0 0 0 0 0 0 0 0 0 0 0 0 127 0"/>
<feOffset/>
<feGaussianBlur stdDeviation="1.5"/>
<feColorMatrix type="matrix" values="0 0 0 0 0 0 0 0 0 0 0 0 0 0 0 0 0 0 0.95 0"/>
<feBlend mode="normal" in2="BackgroundImageFix" result="effect1_dropShadow"/>
<feBlend mode="normal" in="SourceGraphic" in2="effect1_dropShadow" result="shape"/>
</filter>
</defs>
</svg>
