<svg width="145" height="145" viewBox="0 0 145 145" fill="none" xmlns="http://www.w3.org/2000/svg">
<path d="M145 72.5C145 86.6913 140.922 99.9282 133.876 111.106C131.602 114.713 109.697 110.7 106.841 113.841C98.2763 123.265 106.585 137.831 94.1282 141.718C87.2974 143.85 80.0332 145 72.5 145C64.9668 145 57.7026 143.85 50.8718 141.718C44.174 139.628 37.8954 136.592 32.1889 132.768C12.7781 119.758 0 97.6201 0 72.5C0 32.4607 32.4607 0 72.5 0C93.7062 0 112.786 9.10498 126.045 23.6191C128.809 26.6466 131.321 29.9091 133.547 33.3755C140.794 44.6611 145 58.0906 145 72.5Z" fill="#EBB168"/>
<path d="M133.876 36.448V111.106C124.779 125.535 110.738 136.535 94.128 141.717H45.536C39.5094 141.717 34.3466 138.019 32.1886 132.768C31.4948 131.08 31.1124 129.231 31.1124 127.294V54.7062L63.7912 22.0273H119.452C121.828 22.0273 124.068 22.6022 126.045 23.6189C129.817 25.5617 132.624 29.1188 133.547 33.3753C133.762 34.3665 133.876 35.3945 133.876 36.448Z" fill="#D4DAF8"/>
<path d="M116.067 18.6404V109.485C116.067 117.451 109.609 123.909 101.644 123.909H27.7292C19.7641 123.909 13.3057 117.451 13.3057 109.485V36.8971L45.9831 4.21973H101.644C109.609 4.21973 116.067 10.6753 116.067 18.6404Z" fill="#E9EEFF"/>
<path d="M86.3408 33.7472H43.0319C40.4225 33.7472 38.3073 31.632 38.3073 29.0225C38.3073 26.4131 40.4225 24.2979 43.0319 24.2979H86.3405C88.9499 24.2979 91.0652 26.4131 91.0652 29.0225C91.0652 31.632 88.9499 33.7472 86.3408 33.7472Z" fill="#50405A"/>
<path d="M98.6957 58.6433H30.6763C28.4764 58.6433 26.6927 56.86 26.6927 54.6598C26.6927 52.4599 28.4761 50.6763 30.6763 50.6763H98.6957C100.896 50.6763 102.679 52.4596 102.679 54.6598C102.679 56.86 100.896 58.6433 98.6957 58.6433Z" fill="#50405A"/>
<path d="M98.6957 72.9169H30.6763C28.4764 72.9169 26.6927 71.1336 26.6927 68.9334C26.6927 66.7334 28.4761 64.9498 30.6763 64.9498H98.6957C100.896 64.9498 102.679 66.7332 102.679 68.9334C102.679 71.1336 100.896 72.9169 98.6957 72.9169Z" fill="#50405A"/>
<path d="M98.6957 87.1919H30.6763C28.4764 87.1919 26.6927 85.4086 26.6927 83.2084C26.6927 81.0085 28.4761 79.2249 30.6763 79.2249H98.6957C100.896 79.2249 102.679 81.0082 102.679 83.2084C102.679 85.4083 100.896 87.1919 98.6957 87.1919Z" fill="#50405A"/>
<path d="M78.2227 101.466H30.6763C28.4764 101.466 26.6927 99.6824 26.6927 97.4822C26.6927 95.2823 28.4761 93.4987 30.6763 93.4987H78.2227C80.4226 93.4987 82.2062 95.282 82.2062 97.4822C82.2059 99.6821 80.4226 101.466 78.2227 101.466Z" fill="#50405A"/>
<path d="M13.3057 36.8971L45.983 4.21973V22.4764C45.983 30.4415 39.5246 36.8971 31.5595 36.8971H13.3057Z" fill="#D4DAF8"/>
<path d="M95.1865 116.475L83.0694 110.696L77.3396 98.6281L122.929 53.0383L140.776 70.8852L95.1865 116.475Z" fill="#C60054"/>
<path d="M128.451 58.5497L135.243 65.3411L89.6599 110.924L82.8685 104.133L128.451 58.5497Z" fill="#DC4355"/>
<path d="M95.1866 116.476L84.3329 118.775L82.144 119.238C77.6263 120.195 73.6213 116.19 74.5782 111.672L75.041 109.483L77.34 98.6292L95.1866 116.476Z" fill="#F4DB51"/>
<path d="M76.3088 117.507C74.863 116.061 74.1001 113.932 74.5787 111.671L75.0412 109.482L77.3402 98.6287L83.0694 104.358L78.025 112.466L77.0077 114.1C75.9562 115.788 75.7919 116.99 76.3088 117.507Z" fill="#EBB040"/>
<path d="M74.45 112.513C72.5577 114.406 72.5577 117.474 74.45 119.366C76.3424 121.258 79.4103 121.258 81.3027 119.366" fill="#50405A"/>
</svg>
