<svg width="145" height="145" viewBox="0 0 145 145" fill="none" xmlns="http://www.w3.org/2000/svg">
<path d="M140.475 72.5C140.475 103.819 125.139 130.503 97.3227 140.636C89.5799 143.459 81.2197 145 72.4999 145C58.1642 145 44.7998 140.837 33.5482 133.658C13.3756 120.783 6.96021 98.2035 6.96021 72.5C6.96021 52.1009 8.42805 33.6672 21.9878 20.4926C35.0463 7.81074 52.8598 0 72.4999 0C92.1401 0 109.954 7.81074 123.012 20.4926C136.572 33.6672 140.475 52.1009 140.475 72.5Z" fill="#6978D8"/>
<path d="M57.1418 133.658C65.2386 138.823 74.4314 142.429 84.2897 144.043C80.4523 144.674 76.5157 145 72.4999 145C58.1642 145 44.7998 140.837 33.5482 133.658C13.3756 120.783 6.96021 98.2035 6.96021 72.5C6.96021 52.1009 8.42805 33.6672 21.9878 20.4926C35.0463 7.81074 52.8598 0 72.4999 0C76.5186 0 80.4579 0.325684 84.2982 0.957227C69.3649 3.39844 55.9694 10.4049 45.5815 20.4926C32.0217 33.6672 23.5936 52.1009 23.5936 72.5C23.5936 98.2035 36.9693 120.783 57.1418 133.658Z" fill="#545FC0"/>
<path d="M58.793 101.579C58.793 104.465 57.6233 107.079 55.7315 108.971C53.8397 110.863 51.2258 112.032 48.3399 112.032H43.5368C39.167 112.032 35.6241 115.572 35.6241 119.942V125.697C35.6241 128.588 34.8708 131.304 33.5482 133.658C13.3757 120.783 0 98.2035 0 72.5C0 52.1009 8.42812 33.6672 21.9879 20.4926H43.82C49.2802 20.4926 53.7066 24.919 53.7066 30.382C53.7066 33.1121 52.5993 35.5845 50.8123 37.3715C49.0225 39.1613 46.5501 40.2686 43.82 40.2686H30.5406C26.1708 40.2686 22.6279 43.8115 22.6279 48.1813C22.6279 50.3648 23.5144 52.3416 24.9445 53.7746C26.3775 55.2048 28.3543 56.0912 30.5406 56.0912H33.6474C38.796 56.0912 42.9704 60.2656 42.9704 65.4142C42.9704 67.9886 41.9254 70.3193 40.2403 72.0072C38.5524 73.6951 36.2217 74.7373 33.6474 74.7373H26.8675C22.3419 74.7373 18.6744 78.4048 18.6744 82.9303C18.6744 85.1931 19.592 87.2407 21.0731 88.7247C22.5571 90.2058 24.6047 91.1234 26.8675 91.1234H48.3399C54.1116 91.1234 58.793 95.8048 58.793 101.579Z" fill="#78C378"/>
<path d="M145 72.5C145 103.819 125.139 130.503 97.3229 140.636C94.3861 138.922 92.415 135.736 92.415 132.092C92.415 129.361 93.5224 126.889 95.3094 125.099C97.0992 123.309 99.5716 122.202 102.302 122.202H108.518C112.888 122.202 116.428 118.662 116.428 114.292C116.428 112.109 115.541 110.129 114.111 108.699C112.681 107.266 110.704 106.382 108.518 106.382H105.411C100.263 106.382 96.0882 102.208 96.0882 97.0565C96.0882 94.4822 97.1332 92.1514 98.8183 90.4635C100.506 88.7785 102.837 87.7335 105.411 87.7335H127.73C132.256 87.7335 135.924 84.066 135.924 79.5404C135.924 77.2776 135.006 75.2301 133.525 73.7461C132.041 72.2649 129.993 71.3473 127.73 71.3473H90.7186C84.947 71.3473 80.2656 66.666 80.2656 60.8943C80.2656 58.0056 81.4353 55.3945 83.3271 53.5027C85.2188 51.6109 87.8328 50.4413 90.7186 50.4413H95.5218C99.8916 50.4413 103.432 46.8984 103.432 42.5286V36.7739C103.432 27.7822 110.721 20.4926 119.716 20.4926H123.012C136.572 33.6672 145 52.1009 145 72.5Z" fill="#78C378"/>
<path d="M22.6279 48.1813C22.6279 50.3648 23.5144 52.3416 24.9445 53.7746C25.2221 54.0521 25.5194 54.307 25.8366 54.5421C24.3725 60.2854 23.5937 66.3007 23.5937 72.5C23.5937 73.4685 23.6135 74.4314 23.6531 75.3915C20.7248 76.6404 18.6744 79.5461 18.6744 82.9303C18.6744 85.1931 19.592 87.2407 21.0731 88.7247C22.3646 90.0133 24.0808 90.8742 25.9952 91.0753C28.3033 99.8064 32.1974 107.892 37.3573 115.003C36.2727 116.354 35.6241 118.073 35.6241 119.942V125.697C35.6241 128.588 34.8708 131.304 33.5482 133.658C13.3757 120.783 0 98.2035 0 72.5C0 52.1009 8.42812 33.6672 21.9879 20.4926H43.82C44.3723 20.4926 44.916 20.5379 45.4456 20.6257C39.6399 26.2926 34.7858 32.928 31.1382 40.2686H30.5406C26.1708 40.2686 22.6279 43.8115 22.6279 48.1813Z" fill="#5FA258"/>
<path d="M120.418 65.1813L120.175 67.0068H92.9855C90.7889 67.0068 89.796 64.2595 91.4851 62.8553L101.056 54.8973H116.474L126.045 62.8553C126.44 63.1836 126.688 63.5852 126.809 64.0077C127.204 65.3934 122.101 65.1813 120.418 65.1813Z" fill="#362A40"/>
<path d="M133.238 58.0015H84.2919C79.3069 58.0015 75.2656 53.9602 75.2656 48.9752V10.9827C75.2656 5.99773 79.3069 1.95642 84.2919 1.95642H133.238C138.223 1.95642 142.264 5.99773 142.264 10.9827V48.9752C142.264 53.9602 138.223 58.0015 133.238 58.0015Z" fill="#50405A"/>
<path d="M88.4913 58.0005H84.2931C79.3085 58.0005 75.2666 53.9586 75.2666 48.974V10.982C75.2666 5.9959 79.3085 1.95544 84.2931 1.95544H88.4913C83.5067 1.95544 79.4648 5.9959 79.4648 10.982V48.9737C79.4648 53.9586 83.5067 58.0005 88.4913 58.0005Z" fill="#362A40"/>
<path d="M137.1 12.1257V37.9773C137.1 41.6836 134.095 44.6878 130.389 44.6878H87.1395C83.4332 44.6878 80.429 41.6833 80.429 37.9773V12.1257C80.429 8.92916 83.0203 6.33813 86.2165 6.33813H131.312C134.509 6.33785 137.1 8.92916 137.1 12.1257Z" fill="#F4DB51"/>
<path d="M91.176 44.6875H87.1397C83.4335 44.6875 80.429 41.683 80.429 37.9767V12.1257C80.429 8.92916 83.02 6.33813 86.2165 6.33813H90.2527C87.0562 6.33813 84.4652 8.92916 84.4652 12.1257V37.977C84.4654 41.6833 87.47 44.6875 91.176 44.6875Z" fill="#EBB040"/>
<path d="M108.765 53.7145C109.975 53.7145 110.955 52.7338 110.955 51.524C110.955 50.3141 109.975 49.3334 108.765 49.3334C107.555 49.3334 106.574 50.3141 106.574 51.524C106.574 52.7338 107.555 53.7145 108.765 53.7145Z" fill="#362A40"/>
<path d="M128.164 63.9613C127.701 63.511 127.07 63.2338 126.373 63.2338H91.1585C90.4613 63.2338 89.83 63.511 89.3675 63.9613C88.8858 64.4292 88.5879 65.0825 88.5879 65.8044C88.5879 66.5138 88.8762 67.1575 89.3415 67.6228C89.8068 68.0881 90.4491 68.3764 91.1585 68.3764H126.373C127.082 68.3764 127.724 68.0881 128.19 67.6228C128.655 67.1575 128.943 66.5138 128.943 65.8044C128.943 65.0825 128.645 64.4292 128.164 63.9613Z" fill="#50405A"/>
<path d="M41.3808 78.4635H10.5402C6.64788 78.4635 3.49243 81.6189 3.49243 85.5113V133.725C3.49243 137.617 6.64788 140.773 10.5402 140.773H41.3808C45.2731 140.773 48.4286 137.617 48.4286 133.725V85.5113C48.4286 81.6189 45.2731 78.4635 41.3808 78.4635Z" fill="#50405A"/>
<path d="M10.54 135.749C9.42386 135.749 8.51562 134.841 8.51562 133.725V85.511C8.51562 84.3946 9.42386 83.4867 10.54 83.4867H41.3805C42.4966 83.4867 43.4048 84.3946 43.4048 85.511V133.725C43.4048 134.841 42.4969 135.749 41.3805 135.749H10.54Z" fill="#DC4355"/>
<path d="M15.0513 135.75H10.5405C9.4252 135.75 8.51611 134.84 8.51611 133.726V85.511C8.51611 84.3958 9.42548 83.4867 10.5405 83.4867H15.0513C13.9361 83.4867 13.027 84.3961 13.027 85.511V133.726C13.027 134.841 13.9361 135.75 15.0513 135.75Z" fill="#C60054"/>
<path d="M13.4234 140.772H10.5412C6.64942 140.772 3.49341 137.618 3.49341 133.724V85.5113C3.49341 81.6195 6.64942 78.4635 10.5412 78.4635H13.4234C9.53017 78.4635 6.37557 81.6195 6.37557 85.5113V133.724C6.37557 137.618 9.53017 140.772 13.4234 140.772Z" fill="#362A40"/>
<path d="M25.9608 86.9838C23.6083 86.9838 21.7012 85.0767 21.7012 82.7241V78.4645H30.2205V82.7241C30.2205 85.0767 28.3134 86.9838 25.9608 86.9838Z" fill="#50405A"/>
<path d="M25.9606 84.4709C26.9259 84.4709 27.7085 83.6884 27.7085 82.723C27.7085 81.7577 26.9259 80.9751 25.9606 80.9751C24.9952 80.9751 24.2126 81.7577 24.2126 82.723C24.2126 83.6884 24.9952 84.4709 25.9606 84.4709Z" fill="#362A40"/>
</svg>
